<?xml version="1.0" encoding="UTF-8"?>
<svg width="120" height="32" viewBox="0 0 120 32" fill="none" xmlns="http://www.w3.org/2000/svg">
    <!-- Airplane Icon -->
    <path d="M24 8L16 16L24 24L28 20L20 16L28 12L24 8Z" fill="#0284C7"/>
    <!-- Volaré Text -->
    <path d="M40 8H44L52 24H48L46 20H38L36 24H32L40 8ZM42 16H42.5L44 12.5L45.5 16H42Z" fill="#0284C7"/>
    <path d="M54 8H58V24H54V8Z" fill="#0284C7"/>
    <path d="M60 8H64L68 16L72 8H76V24H72V14L68 22H64L60 14V24H56V8H60Z" fill="#0284C7"/>
    <path d="M78 8H82V20H90V24H78V8Z" fill="#0284C7"/>
    <path d="M92 8H96L100 16L104 8H108V24H104V14L100 22H96L92 14V24H88V8H92Z" fill="#0284C7"/>
    <path d="M110 8H114V20H122V24H110V8Z" fill="#0284C7"/>
</svg> 